<?xml version="1.0" encoding="UTF-8" standalone="no"?>
<!-- Uploaded to: SVG Repo, www.svgrepo.com, Generator: SVG Repo Mixer Tools -->

<svg
   fill="#000000"
   height="800px"
   width="800px"
   version="1.1"
   id="Layer_1"
   viewBox="0 0 612 612"
   xml:space="preserve"
   sodipodi:docname="bot.svg"
   inkscape:version="1.2.2 (b0a8486541, 2022-12-01)"
   xmlns:inkscape="http://www.inkscape.org/namespaces/inkscape"
   xmlns:sodipodi="http://sodipodi.sourceforge.net/DTD/sodipodi-0.dtd"
   xmlns="http://www.w3.org/2000/svg"
   xmlns:svg="http://www.w3.org/2000/svg"><defs
   id="defs233" /><sodipodi:namedview
   id="namedview231"
   pagecolor="#ffffff"
   bordercolor="#666666"
   borderopacity="1.0"
   inkscape:showpageshadow="2"
   inkscape:pageopacity="0.0"
   inkscape:pagecheckerboard="0"
   inkscape:deskcolor="#d1d1d1"
   showgrid="false"
   inkscape:zoom="0.295"
   inkscape:cx="400"
   inkscape:cy="401.69492"
   inkscape:window-width="838"
   inkscape:window-height="1028"
   inkscape:window-x="840"
   inkscape:window-y="20"
   inkscape:window-maximized="1"
   inkscape:current-layer="Layer_1" />
<g
   id="g210"
   transform="translate(47.392748,48.656911)">
	<g
   id="g208">
		<path
   d="m 301.253,463.578 c -3.042,-3.448 -8.303,-3.779 -11.756,-0.735 -23.75,20.958 -54.296,32.501 -86.008,32.501 -71.71,0 -130.05,-58.341 -130.05,-130.05 V 286.57 h 41.546 c 4.599,0 8.328,-3.729 8.328,-8.328 0,-4.599 -3.729,-8.328 -8.328,-8.328 H 103.984 V 245.87 h 14.07 c 4.599,0 8.328,-3.729 8.328,-8.328 v -77.914 c 0,-4.599 -3.729,-8.328 -8.328,-8.328 h -14.07 v -21.272 h 14.07 c 4.599,0 8.328,-3.729 8.328,-8.328 V 66.187 c 0,-16.944 -13.785,-30.729 -30.729,-30.729 -16.943,0 -30.73,13.784 -30.73,30.729 V 121.7 c 0,4.599 3.729,8.328 8.328,8.328 H 87.328 V 151.3 H 73.251 c -4.599,0 -8.328,3.729 -8.328,8.328 v 77.914 c 0,4.599 3.729,8.328 8.328,8.328 h 14.077 v 24.044 H 65.111 c -4.599,0 -8.328,3.729 -8.328,8.328 v 87.052 c 0,80.894 65.813,146.706 146.706,146.706 35.774,0 70.233,-13.023 97.03,-36.667 3.448,-3.044 3.777,-8.306 0.734,-11.755 z M 81.579,113.372 V 66.187 c 0,-7.76 6.314,-14.073 14.073,-14.073 7.759,0 14.073,6.314 14.073,14.073 v 47.186 H 81.579 Z m 0,115.842 v -61.259 h 28.147 v 61.259 z"
   id="path206" />
	</g>
</g>
<g
   id="g216"
   transform="translate(47.392748,48.656911)">
	<g
   id="g214">
		<path
   d="m 446.889,282.799 h -24.233 v -28.113 h 24.231 v 0.001 c 4.6,0 8.328,-3.729 8.328,-8.328 v -63.084 c 0,-22.545 -18.342,-40.888 -40.887,-40.888 -22.546,0 -40.888,18.342 -40.888,40.888 v 63.084 c 0,4.599 3.728,8.328 8.328,8.328 H 406 V 282.8 h -24.232 c -4.6,0 -8.328,3.729 -8.328,8.328 v 40.743 h -23.246 v -53.629 c 0,-4.599 -3.728,-8.328 -8.328,-8.328 H 327.793 V 245.87 h 14.073 c 4.6,0 8.328,-3.729 8.328,-8.328 v -89.733 c 0,-4.599 -3.728,-8.328 -8.328,-8.328 h -14.073 v -21.272 h 14.073 c 4.6,0 8.328,-3.729 8.328,-8.328 V 54.368 c 0,-16.944 -13.784,-30.729 -30.729,-30.729 -16.945,0 -30.73,13.785 -30.73,30.729 v 55.514 c 0,4.599 3.728,8.328 8.328,8.328 h 14.074 v 21.272 h -14.074 c -4.6,0 -8.328,3.729 -8.328,8.328 v 89.733 c 0,4.599 3.728,8.328 8.328,8.328 h 14.074 v 24.044 H 253.188 V 245.87 h 14.073 c 4.6,0 8.328,-3.729 8.328,-8.328 v -33.431 c 0,-4.599 -3.728,-8.328 -8.328,-8.328 -4.6,0 -8.328,3.729 -8.328,8.328 v 25.104 h -28.147 v -78.987 h 28.147 v 26.124 c 0,4.599 3.728,8.328 8.328,8.328 4.6,0 8.328,-3.729 8.328,-8.328 V 141.9 c 0,-4.599 -3.728,-8.328 -8.328,-8.328 H 253.188 V 112.3 h 14.073 c 4.6,0 8.328,-3.729 8.328,-8.328 V 30.729 C 275.591,13.785 261.806,0 244.862,0 227.918,0 214.133,13.785 214.133,30.729 v 73.242 c 0,4.599 3.729,8.328 8.328,8.328 h 14.073 v 21.272 h -14.073 c -4.599,0 -8.328,3.729 -8.328,8.328 v 95.643 c 0,4.599 3.729,8.328 8.328,8.328 h 14.073 v 24.044 H 178.585 V 245.87 h 14.073 c 4.599,0 8.328,-3.729 8.328,-8.328 v -89.733 c 0,-4.599 -3.729,-8.328 -8.328,-8.328 h -14.073 v -21.272 h 14.073 c 4.599,0 8.328,-3.729 8.328,-8.328 V 36.639 c 0,-16.944 -13.785,-30.729 -30.729,-30.729 -16.943,0 -30.729,13.785 -30.729,30.729 v 73.242 c 0,4.599 3.729,8.328 8.328,8.328 h 14.073 v 21.272 h -14.073 c -4.599,0 -8.328,3.729 -8.328,8.328 v 89.733 c 0,4.599 3.729,8.328 8.328,8.328 h 14.073 v 24.044 h -19.185 c -4.599,0 -8.328,3.729 -8.328,8.328 0,4.599 3.729,8.328 8.328,8.328 H 333.54 v 78.724 c 0,30.005 -9.926,58.19 -28.705,81.508 -2.886,3.582 -2.321,8.824 1.263,11.709 1.539,1.239 3.384,1.842 5.218,1.842 2.434,0 4.846,-1.063 6.491,-3.105 20.886,-25.934 32.389,-58.592 32.389,-91.954 v -16.767 h 23.246 v 38.244 c 0,4.599 3.728,8.328 8.328,8.328 40.499,0 73.447,-32.948 73.447,-73.447 v -30.524 c 0,-4.6 -3.728,-8.329 -8.328,-8.329 z M 230.787,95.643 V 30.729 h 0.001 c 0,-7.76 6.314,-14.073 14.073,-14.073 7.759,0 14.073,6.314 14.073,14.073 v 64.914 z m -74.604,5.91 V 36.639 h 0.001 c 0,-7.76 6.314,-14.073 14.073,-14.073 7.759,0 14.073,6.314 14.073,14.073 v 64.914 z m 0.001,127.661 v -73.078 h 28.147 v 73.078 z M 305.393,101.553 V 54.368 c 0,-7.76 6.314,-14.073 14.074,-14.073 7.759,0 14.073,6.314 14.073,14.073 v 47.186 h -28.147 z m 0,127.661 v -73.078 h 28.147 v 73.078 z m 84.702,8.818 v -54.756 h 10e-4 c 0,-13.361 10.871,-24.232 24.232,-24.232 13.361,0 24.231,10.871 24.231,24.232 v 54.756 z m 48.464,83.621 c 0,28.486 -21.082,52.141 -48.464,56.182 v -78.379 h 48.464 z"
   id="path212" />
	</g>
</g>
<g
   id="g222"
   transform="translate(47.392748,48.656911)">
	<g
   id="g220">
		<path
   d="m 142.33,316.888 c -21.211,0 -38.466,17.255 -38.466,38.466 0,21.209 17.255,38.465 38.466,38.465 21.209,0 38.465,-17.255 38.465,-38.465 -10e-4,-21.211 -17.256,-38.466 -38.465,-38.466 z m -0.002,60.275 c -12.027,0 -21.81,-9.784 -21.81,-21.809 0.001,-12.027 9.785,-21.81 21.81,-21.81 12.025,0 21.809,9.784 21.809,21.81 0,12.025 -9.783,21.809 -21.809,21.809 z"
   id="path218" />
	</g>
</g>
<g
   id="g228"
   transform="translate(47.392748,48.656911)">
	<g
   id="g226">
		<path
   d="m 264.65,316.888 c -21.21,0 -38.466,17.255 -38.466,38.466 0,21.209 17.255,38.465 38.466,38.465 21.211,0 38.466,-17.255 38.466,-38.465 0,-21.211 -17.255,-38.466 -38.466,-38.466 z m 0.002,60.275 c -12.027,0 -21.81,-9.784 -21.81,-21.809 0,-12.027 9.784,-21.81 21.81,-21.81 12.025,0 21.81,9.784 21.81,21.81 0,12.025 -9.785,21.809 -21.81,21.809 z"
   id="path224" />
	</g>
</g>
</svg>
