<?xml version="1.0" encoding="UTF-8" standalone="no"?>
<!-- Uploaded to: SVG Repo, www.svgrepo.com, Generator: SVG Repo Mixer Tools -->

<svg
   width="800px"
   height="800px"
   viewBox="0 0 1024 1024"
   fill="#000000"
   class="icon"
   version="1.1"
   id="svg6"
   sodipodi:docname="clock.svg"
   inkscape:version="1.2.2 (b0a8486541, 2022-12-01)"
   xmlns:inkscape="http://www.inkscape.org/namespaces/inkscape"
   xmlns:sodipodi="http://sodipodi.sourceforge.net/DTD/sodipodi-0.dtd"
   xmlns="http://www.w3.org/2000/svg"
   xmlns:svg="http://www.w3.org/2000/svg">
  <defs
     id="defs10" />
  <sodipodi:namedview
     id="namedview8"
     pagecolor="#ffffff"
     bordercolor="#666666"
     borderopacity="1.0"
     inkscape:showpageshadow="2"
     inkscape:pageopacity="0.0"
     inkscape:pagecheckerboard="0"
     inkscape:deskcolor="#d1d1d1"
     showgrid="false"
     inkscape:zoom="0.295"
     inkscape:cx="400"
     inkscape:cy="401.69492"
     inkscape:window-width="838"
     inkscape:window-height="1028"
     inkscape:window-x="840"
     inkscape:window-y="20"
     inkscape:window-maximized="1"
     inkscape:current-layer="svg6" />
  <path
     d="m 270.29054,858.43385 c -3.45481,0 -6.90962,-1.15161 -9.78863,-4.03062 -6.33383,-5.18222 -6.90963,-14.97085 -1.72741,-21.88048 l 57.58021,-67.36884 -3.45482,-2.87901 c -72.55106,-58.15601 -114.0088,-145.10212 -114.0088,-237.80625 0,-35.69973 6.33382,-70.82365 17.84986,-104.22017 l 1.1516,-2.87901 -2.3032,-1.72741 c -27.6385,-21.30467 -43.76096,-53.54959 -43.76096,-88.09771 0,-61.03502 49.51898,-110.554 110.55399,-110.554 30.51751,0 58.73181,12.09185 79.46069,33.39652 l 2.30321,2.30321 2.87901,-1.1516 c 43.18515,-22.45628 91.55252,-33.97233 140.4957,-33.97233 49.51898,0 99.61376,12.66765 144.52632,36.27553 l 2.87901,1.72741 2.3032,-2.30321 c 20.72888,-22.45628 50.09478,-35.69973 81.1881,-35.69973 61.03501,0 110.55399,49.51898 110.55399,110.554 0,36.85133 -18.42567,71.39946 -48.94317,92.12833 l -2.87902,1.72741 1.15161,2.87901 c 10.94024,32.24491 16.69826,65.64143 16.69826,100.76536 0,93.27993 -41.45775,180.22604 -114.00881,238.38205 l -3.45481,2.30321 56.4286,67.36884 c 2.87901,2.87901 4.03061,6.90962 3.45481,10.94024 -0.5758,4.03061 -2.30321,8.06122 -5.75802,10.94024 -2.87901,2.3032 -6.33382,3.45481 -10.36443,3.45481 -4.60642,0 -8.63704,-1.72741 -12.09185,-5.18222 l -58.73181,-69.09625 -2.87901,1.72741 c -48.94317,29.94171 -104.79597,46.06416 -161.80038,46.06416 -57.5802,0 -113.433,-16.12245 -161.80037,-46.06416 l -2.87902,-1.72741 -59.30761,69.67205 c -2.87901,1.72741 -7.48542,4.03062 -11.51604,4.03062 z M 506.94519,247.50786 c -152.58755,0 -276.38499,123.79744 -276.38499,276.38499 0,152.58754 123.79744,276.38499 276.38499,276.38499 152.58754,0 276.38499,-123.79745 276.38499,-276.38499 0,-152.58755 -124.37325,-276.38499 -276.38499,-276.38499 z m 230.32082,0 c -19.57727,0 -38.00293,6.90963 -52.39799,20.15307 l -4.03061,3.45482 4.03061,2.87901 c 40.88195,29.3659 74.27847,68.52044 96.73475,113.433 l 2.30321,4.60642 4.03061,-3.45481 c 18.42567,-14.97086 28.7901,-37.42714 28.7901,-61.03502 0,-44.33676 -35.69972,-80.03649 -79.46068,-80.03649 z m -454.30782,0 c -43.76096,0 -79.46069,35.69973 -79.46069,79.46069 0,21.88047 8.63703,42.03355 24.18369,57.0044 l 4.03061,4.03061 2.30321,-4.60641 c 23.03208,-44.33676 57.00441,-83.4913 98.46215,-111.7056 l 4.60642,-2.87901 -4.03061,-3.45481 c -14.39506,-11.51605 -32.24492,-17.84987 -50.09478,-17.84987 z"
     fill=""
     id="path2"
     style="stroke-width:0.719753" />
  <path
     d="m 506.36939,539.43951 c -8.63704,0 -15.54666,-6.90963 -15.54666,-15.54666 V 344.81841 c 0,-8.63703 6.90962,-15.54666 15.54666,-15.54666 8.63703,0 15.54665,6.90963 15.54665,15.54666 v 163.52778 h 152.58755 c 8.63703,0 15.54665,6.90963 15.54665,15.54666 0,8.63703 -6.90962,15.54666 -15.54665,15.54666 z"
     fill=""
     id="path4"
     style="stroke-width:0.719753" />
</svg>
