<?xml version="1.0" encoding="UTF-8" standalone="no"?>
<!-- Uploaded to: SVG Repo, www.svgrepo.com, Generator: SVG Repo Mixer Tools -->

<svg
   fill="#000000"
   height="900px"
   width="900px"
   version="1.1"
   id="Layer_1"
   viewBox="0 0 712 712"
   xml:space="preserve"
   sodipodi:docname="paper.svg"
   inkscape:version="1.2.2 (b0a8486541, 2022-12-01)"
   xmlns:inkscape="http://www.inkscape.org/namespaces/inkscape"
   xmlns:sodipodi="http://sodipodi.sourceforge.net/DTD/sodipodi-0.dtd"
   xmlns="http://www.w3.org/2000/svg"
   xmlns:svg="http://www.w3.org/2000/svg"><defs
   id="defs198" /><sodipodi:namedview
   id="namedview196"
   pagecolor="#ffffff"
   bordercolor="#666666"
   borderopacity="1.0"
   inkscape:showpageshadow="2"
   inkscape:pageopacity="0.0"
   inkscape:pagecheckerboard="0"
   inkscape:deskcolor="#d1d1d1"
   showgrid="false"
   inkscape:zoom="0.26222222"
   inkscape:cx="450"
   inkscape:cy="451.90678"
   inkscape:window-width="1680"
   inkscape:window-height="1050"
   inkscape:window-x="0"
   inkscape:window-y="0"
   inkscape:window-maximized="1"
   inkscape:current-layer="Layer_1" />
<g
   id="g193"
   transform="rotate(90,247.618,358.57811)">
	<g
   id="g191">
		<path
   d="m 459.04,85.675 c -21.7,-6.332 -32.939,15.462 -40.67,30.447 L 393.675,174.08 409.334,69.658 C 411.578,56.03 408.959,43.981 401.953,35.729 396.406,29.192 388.564,25.6 379.852,25.6 c -16.7,0 -31.249,14.549 -37.146,37.41 L 324.12,149.82 V 42.906 C 324.478,29.85 320.485,18.347 312.865,10.522 306.174,3.635 297.155,0 286.787,0 c -29.065,0 -36.173,28.45 -39.211,40.593 -0.145,0.563 -0.222,1.126 -0.247,1.698 L 242.926,143.556 230.202,50.27 C 226.217,13.952 204.798,8.533 192.382,8.533 c -22.554,0 -38.929,17.946 -38.903,43.298 l 17.067,230.4 c 0.35,4.693 4.284,8.243 9.139,7.876 4.702,-0.35 8.226,-4.437 7.876,-9.139 L 170.52,51.2 c 0,-12.74 6.758,-25.6 21.862,-25.6 4.446,0 17.946,0 20.881,26.752 l 25.6,187.733 c 0.597,4.378 4.565,7.603 8.849,7.373 4.412,-0.205 7.936,-3.746 8.132,-8.158 l 8.491,-195.388 c 5.726,-22.332 12.851,-26.846 22.451,-26.846 5.734,0 10.394,1.801 13.85,5.35 4.378,4.497 6.647,11.605 6.417,20.25 V 230.4 c 0,4.369 3.294,8.021 7.629,8.491 4.395,0.384 8.329,-2.441 9.242,-6.707 L 359.32,66.935 c 3.115,-12.083 10.675,-24.269 20.531,-24.269 3.669,0 6.81,1.417 9.088,4.104 3.652,4.309 4.958,11.639 3.541,20.233 l -25.6,170.667 c -0.64,4.25 1.98,8.303 6.11,9.472 4.156,1.169 8.508,-0.913 10.18,-4.864 l 50.62,-118.895 c 10.402,-20.07 15.061,-22.886 20.471,-21.325 3.849,1.118 8.627,2.517 5.914,15.915 -0.247,1.109 -25.062,111.386 -33.348,162.261 -2.603,16.009 -4.395,35.49 -6.46,58.044 -4.343,47.275 -9.702,105.685 -25.66,156.655 H 203.049 C 183.405,408.482 115.71,300.023 74.187,258.5 c -7.424,-7.424 -20.326,-21.615 -23.04,-24.593 0.077,-0.154 0.205,-0.384 0.444,-0.7 l 3.695,-3.593 c 9.967,-9.958 43.315,-9.95 53.282,0 l 32.666,32.666 c 3.337,3.328 8.738,3.328 12.066,0 3.337,-3.336 3.337,-8.738 0,-12.066 l -32.666,-32.666 c -16.64,-16.64 -60.774,-16.64 -77.329,-0.094 l -4.002,3.891 c -0.222,0.213 -0.427,0.444 -0.623,0.683 -5.717,6.912 -6.212,15.13 -1.306,21.999 0.188,0.265 0.393,0.521 0.614,0.759 0.631,0.7 15.539,17.195 24.132,25.779 40.977,40.986 108.407,149.598 125.517,233.839 0.461,4.267 4.087,7.595 8.482,7.595 h 204.8 c 3.678,0 6.929,-2.347 8.09,-5.837 18.057,-54.17 23.765,-116.352 28.348,-166.323 2.048,-22.238 3.814,-41.446 6.323,-56.858 8.183,-50.372 32.896,-160.154 33.186,-161.434 4.856,-23.943 -7.014,-32.715 -17.826,-35.872 z"
   id="path189" />
	</g>
</g>
</svg>
