<?xml version="1.0" encoding="UTF-8" standalone="no"?>
<!-- Uploaded to: SVG Repo, www.svgrepo.com, Generator: SVG Repo Mixer Tools -->

<svg
   fill="#000000"
   height="800px"
   width="800px"
   version="1.1"
   id="Layer_1"
   viewBox="0 0 612 612"
   xml:space="preserve"
   sodipodi:docname="rock.svg"
   inkscape:version="1.2.2 (b0a8486541, 2022-12-01)"
   xmlns:inkscape="http://www.inkscape.org/namespaces/inkscape"
   xmlns:sodipodi="http://sodipodi.sourceforge.net/DTD/sodipodi-0.dtd"
   xmlns="http://www.w3.org/2000/svg"
   xmlns:svg="http://www.w3.org/2000/svg"><defs
   id="defs19" /><sodipodi:namedview
   id="namedview17"
   pagecolor="#ffffff"
   bordercolor="#666666"
   borderopacity="1.0"
   inkscape:showpageshadow="2"
   inkscape:pageopacity="0.0"
   inkscape:pagecheckerboard="0"
   inkscape:deskcolor="#d1d1d1"
   showgrid="false"
   inkscape:zoom="0.295"
   inkscape:cx="-108.47458"
   inkscape:cy="415.25424"
   inkscape:window-width="838"
   inkscape:window-height="1028"
   inkscape:window-x="840"
   inkscape:window-y="20"
   inkscape:window-maximized="1"
   inkscape:current-layer="Layer_1" />
<g
   id="g14"
   transform="matrix(0.82761006,0,0,0.81894658,99.058674,89.770695)">
	<g
   id="g12">
		<g
   id="g10">
			<path
   d="M 495.736,290.773 C 509.397,282.317 512,269.397 512,260.796 c 0,-22.4 -18.253,-47.462 -42.667,-47.462 H 349.918 c -4.284,-0.051 -25.651,-1.51 -25.651,-25.6 0,-4.71 -3.814,-8.533 -8.533,-8.533 -4.719,0 -8.533,3.823 -8.533,8.533 0,33.749 27.913,42.667 42.667,42.667 h 119.467 c 14.182,0 25.6,16.631 25.6,30.396 0,4.437 0,17.946 -26.53,20.855 -4.506,0.495 -7.834,4.42 -7.586,8.951 0.239,4.523 3.985,8.064 8.516,8.064 14.114,0 25.6,11.486 25.6,25.6 0,14.114 -11.486,25.6 -25.6,25.6 h -17.067 c -4.719,0 -8.533,3.823 -8.533,8.533 0,4.71 3.814,8.533 8.533,8.533 14.114,0 25.6,11.486 25.6,25.6 0,14.114 -11.486,25.6 -25.6,25.6 h -25.6 c -4.719,0 -8.533,3.823 -8.533,8.533 0,4.71 3.814,8.533 8.533,8.533 8.934,0 17.067,8.132 17.067,17.067 0,8.61 -8.448,17.067 -17.067,17.067 h -128 c -35.627,0 -48.444,-7.074 -63.292,-15.258 -12.553,-6.921 -26.786,-14.763 -54.963,-18.79 -4.668,-0.674 -8.994,2.577 -9.66,7.236 -0.666,4.668 2.569,8.994 7.236,9.66 25.105,3.584 37.325,10.325 49.152,16.845 15.497,8.542 31.505,17.374 71.526,17.374 h 128 c 17.869,0 34.133,-16.273 34.133,-34.133 0,-6.229 -1.775,-12.134 -4.83,-17.229 21.794,-1.877 38.963,-20.224 38.963,-42.505 0,-10.829 -4.062,-20.736 -10.735,-28.271 16.222,-6.05 27.802,-21.691 27.802,-39.995 0,-13.568 -6.366,-25.677 -16.264,-33.494 z"
   id="path2" />
			<path
   d="m 76.8,443.733 c 9.412,0 17.067,-7.654 17.067,-17.067 0,-9.413 -7.655,-17.066 -17.067,-17.066 -9.412,0 -17.067,7.654 -17.067,17.067 0,9.413 7.655,17.066 17.067,17.066 z"
   id="path4" />
			<path
   d="m 179.2,247.467 c 25.353,0 57.429,-28.297 74.3,-45.167 36.634,-36.634 36.634,-82.167 36.634,-151.1 0,-5.342 3.191,-8.533 8.533,-8.533 29.508,0 42.667,13.158 42.667,42.667 v 102.4 c 0,4.71 3.814,8.533 8.533,8.533 4.719,0 8.533,-3.823 8.533,-8.533 v -102.4 c 0,-39.083 -20.659,-59.733 -59.733,-59.733 -14.831,0 -25.6,10.769 -25.6,25.6 0,66.978 0,107.401 -31.633,139.034 -24.773,24.771 -48.623,40.165 -62.234,40.165 -4.719,0 -8.533,3.823 -8.533,8.533 0,4.71 3.814,8.534 8.533,8.534 z"
   id="path6" />
			<path
   d="M 145.067,213.333 H 8.533 C 3.814,213.333 0,217.156 0,221.866 v 256 c 0,4.71 3.814,8.533 8.533,8.533 h 136.533 c 4.719,0 8.533,-3.823 8.533,-8.533 v -256 c 0.001,-4.71 -3.813,-8.533 -8.532,-8.533 z m -8.534,256 H 17.067 V 230.4 h 119.467 v 238.933 z"
   id="path8" />
		</g>
	</g>
</g>
</svg>
