<?xml version="1.0" encoding="UTF-8" standalone="no"?>
<!-- Uploaded to: SVG Repo, www.svgrepo.com, Generator: SVG Repo Mixer Tools -->

<svg
   fill="#000000"
   height="900px"
   width="900px"
   version="1.1"
   id="Layer_1"
   viewBox="0 0 612 612"
   xml:space="preserve"
   sodipodi:docname="scissors.svg"
   inkscape:version="1.2.2 (b0a8486541, 2022-12-01)"
   xmlns:inkscape="http://www.inkscape.org/namespaces/inkscape"
   xmlns:sodipodi="http://sodipodi.sourceforge.net/DTD/sodipodi-0.dtd"
   xmlns="http://www.w3.org/2000/svg"
   xmlns:svg="http://www.w3.org/2000/svg"><defs
   id="defs11" /><sodipodi:namedview
   id="namedview9"
   pagecolor="#ffffff"
   bordercolor="#666666"
   borderopacity="1.0"
   inkscape:showpageshadow="2"
   inkscape:pageopacity="0.0"
   inkscape:pagecheckerboard="0"
   inkscape:deskcolor="#d1d1d1"
   showgrid="false"
   inkscape:zoom="0.26222222"
   inkscape:cx="450"
   inkscape:cy="451.90678"
   inkscape:window-width="838"
   inkscape:window-height="1028"
   inkscape:window-x="840"
   inkscape:window-y="20"
   inkscape:window-maximized="1"
   inkscape:current-layer="Layer_1" />
<g
   id="g6"
   transform="rotate(90,255.21436,315.5768)">
	<g
   id="g4">
		<path
   d="m 445.684,185.027 c -5.973,-8.533 -14.507,-14.507 -24.747,-16.213 -8.533,-1.707 -16.213,-0.853 -23.04,2.56 0,-8.533 -2.56,-16.213 -6.827,-23.04 -5.973,-8.533 -14.507,-14.507 -24.747,-16.213 -6.827,-1.707 -14.507,-0.853 -21.333,1.707 l 18.773,-89.6 c 1.707,-7.68 0.853,-15.36 -1.707,-22.187 C 355.23,8.387 341.577,-1 326.217,-1 299.764,-1 291.23,19.48 287.817,35.693 L 254.537,196.12 228.084,69.827 c -5.973,-26.453 -17.067,-36.693 -38.4,-36.693 -12.8,0 -24.747,4.267 -31.573,11.947 -4.267,5.12 -8.533,13.653 -6.827,27.307 l 29.013,162.133 c -18.773,-18.773 -43.52,-39.253 -64,-50.347 -17.067,-9.387 -42.667,-3.413 -53.76,12.8 -3.413,5.12 -13.653,24.747 12.8,46.08 54.613,45.227 58.88,97.28 58.88,98.133 9.387,65.707 47.787,97.28 60.587,105.813 v 29.867 c 0,18.773 14.507,34.133 33.28,34.133 h 153.6 c 18.773,0 34.987,-15.36 34.987,-34.133 v -30.72 c 25.6,-34.987 25.6,-39.253 25.6,-105.813 v -81.067 l 9.387,-45.227 c 1.706,-10.24 -0.001,-20.48 -5.974,-29.013 z m -29.867,117.76 c -1.707,11.947 -12.8,19.627 -24.747,17.067 -5.973,-1.707 -10.24,-4.267 -13.653,-9.387 -3.413,-5.12 -4.267,-10.24 -3.413,-16.213 l 17.067,-87.893 c 1.707,-5.973 4.267,-10.24 9.387,-13.653 3.413,-2.56 7.68,-3.413 11.947,-3.413 1.707,0 2.56,0 3.413,0.853 9.421,1.346 16.184,8.531 17.369,17.367 -0.007,1.285 -0.108,2.603 -0.302,3.967 l -4.016,24.094 z M 337.31,169.667 c 1.707,-5.973 4.267,-10.24 9.387,-13.653 3.413,-2.56 7.68,-3.413 11.947,-3.413 1.707,0 2.56,0 4.267,0.853 7.443,1.063 13.228,5.77 15.914,12.056 0.718,2.928 0.771,5.971 0.299,9.277 l -5.12,24.747 c -0.189,1.133 -0.159,2.22 0.033,3.241 -0.01,0.058 -0.024,0.114 -0.033,0.172 l -17.067,87.893 c 0,0.001 0,0.002 0,0.003 -1.708,11.945 -12.801,19.623 -24.746,17.064 -5.973,-1.707 -10.24,-4.267 -13.653,-9.387 -3.413,-5.12 -4.267,-10.24 -3.413,-16.213 z M 404.369,434.2 H 391.07 c -5.12,0 -8.533,3.413 -8.533,8.533 0,5.12 3.413,8.533 8.533,8.533 h 8.533 v 26.453 c 0,9.387 -8.533,17.067 -17.92,17.067 h -153.6 c -9.387,0 -16.213,-7.68 -16.213,-17.067 v -26.453 h 17.067 c 5.12,0 8.533,-3.413 8.533,-8.533 0,-5.12 -3.413,-8.533 -8.533,-8.533 h -23.854 c -9.764,-6.741 -44.923,-33.951 -53.8,-93.867 0,-2.56 -4.267,-59.733 -64.853,-110.08 -7.68,-6.827 -15.36,-15.36 -10.24,-22.187 5.973,-8.533 22.187,-12.8 31.573,-7.68 27.307,14.507 63.147,47.787 79.36,69.12 0.048,0.064 0.101,0.121 0.15,0.184 3.938,13.564 12.271,36.204 26.303,51.016 1.707,1.707 3.413,2.56 5.973,2.56 1.707,0 4.267,-0.853 6.827,-1.707 3.413,-3.413 3.413,-8.533 0,-11.947 -10.24,-10.24 -18.773,-27.307 -23.893,-47.787 -0.079,-0.394 -0.205,-0.769 -0.353,-1.133 L 168.35,70.68 c -0.853,-5.973 0.853,-10.24 3.413,-13.653 3.413,-4.267 10.24,-6.827 17.92,-6.827 10.24,0 17.067,1.707 21.333,23.04 l 34.987,166.4 c 0.853,4.267 4.267,6.827 8.533,6.827 4.266,0 7.68,-2.56 8.533,-6.827 L 304.882,39.107 c 4.267,-19.627 11.093,-23.04 21.333,-23.04 8.533,0 16.213,5.12 18.773,12.8 1.707,4.267 1.707,9.387 0.853,12.8 l -23.893,117.76 c -0.036,0.215 -0.057,0.426 -0.081,0.638 -0.715,1.985 -1.269,4.047 -1.626,6.189 l -22.187,112.64 c -1.707,10.24 0,20.48 5.973,29.013 5.973,8.533 14.507,14.507 24.747,16.213 2.56,0.853 5.12,0.853 7.68,0.853 9.035,0 17.634,-3.04 24.38,-8.458 0.624,1.138 1.313,2.252 2.073,3.338 5.973,8.533 14.507,14.507 24.747,16.213 2.56,0.853 5.12,0.853 7.68,0.853 11.858,0 22.965,-5.608 29.867,-14.84 v 18.253 c 0.003,61.958 10e-4,64.728 -20.832,93.868 z"
   id="path2" />
	</g>
</g>
</svg>
